<?xml version="1.0" encoding="utf-8"?>
<!-- Generator: Adobe Illustrator 28.0.0, SVG Export Plug-In . SVG Version: 6.00 Build 0)  -->
<svg version="1.1" id="Layer_1" xmlns="http://www.w3.org/2000/svg" xmlns:xlink="http://www.w3.org/1999/xlink" x="0px" y="0px"
	 viewBox="0 0 121.6 104.4" style="enable-background:new 0 0 121.6 104.4;" xml:space="preserve">
<style type="text/css">
	.st0{fill:#FFFFFF;}
</style>
<g>
	<path class="st0" d="M45.6,101.4H30.8c-15.2,0-27.5-12.3-27.5-27.5l0,0H46v27.5H45.6z"/>
	<path class="st0" d="M119.2,41.6v27.1H95.4c-5.2,0-9.7,4.5-9.7,9.7v23H58.3C60.5,69.1,86.5,43.4,119.2,41.6z"/>
	<path class="st0" d="M76.5,2.5h14.9c15.2,0,27.5,12.3,27.5,27.5l0,0H76.5V2.5z"/>
	<path class="st0" d="M2.9,62.4V35.2h23.8c5.2,0,9.7-4.5,9.7-9.7V2.9h27.5C61.2,35.2,35.2,60.9,2.9,62.4z"/>
</g>
</svg>
