<?xml version="1.0" encoding="utf-8"?>
<!-- Generator: Adobe Illustrator 28.0.0, SVG Export Plug-In . SVG Version: 6.00 Build 0)  -->
<svg version="1.1" id="Layer_1" xmlns="http://www.w3.org/2000/svg" xmlns:xlink="http://www.w3.org/1999/xlink" x="0px" y="0px"
	 viewBox="0 0 159 40" style="enable-background:new 0 0 159 40;" xml:space="preserve">
<style type="text/css">
	.st0{fill:#FFFFFF;}
</style>
<g>
	<path class="st0" d="M45.6,31.9h-4V8.2h4v11.2c0.2-0.9,0.5-1.7,0.9-2.4c0.4-0.7,0.8-1.3,1.4-1.8c0.5-0.5,1.2-0.9,1.9-1.1
		s1.5-0.4,2.3-0.4c1,0,1.8,0.2,2.6,0.5c0.8,0.4,1.4,0.9,1.9,1.6c0.5,0.7,0.9,1.5,1.2,2.5s0.4,2.1,0.4,3.4v10.1h-4v-9.7
		c0-3.3-1.3-4.9-4-4.9c-0.7,0-1.3,0.1-1.9,0.3c-0.6,0.2-1,0.6-1.4,1c-0.4,0.4-0.7,1-0.9,1.6c-0.2,0.6-0.3,1.4-0.3,2.2V31.9z"/>
	<path class="st0" d="M59.9,23.1c0-1.4,0.2-2.7,0.6-3.8c0.4-1.1,1-2.1,1.8-2.9c0.8-0.8,1.7-1.4,2.8-1.9c1.1-0.4,2.3-0.7,3.6-0.7
		c1.3,0,2.5,0.2,3.6,0.7s2,1.1,2.8,1.9s1.4,1.8,1.8,2.9c0.4,1.1,0.6,2.4,0.6,3.8c0,0.9-0.1,1.8-0.3,2.6c-0.2,0.8-0.5,1.6-0.8,2.3
		c-0.4,0.7-0.8,1.3-1.3,1.9s-1.1,1-1.8,1.4c-0.7,0.4-1.4,0.7-2.1,0.9c-0.8,0.2-1.6,0.3-2.5,0.3c-0.9,0-1.7-0.1-2.5-0.3
		c-0.8-0.2-1.5-0.5-2.1-0.9c-0.7-0.4-1.2-0.8-1.8-1.4c-0.5-0.5-1-1.2-1.3-1.9c-0.4-0.7-0.6-1.4-0.8-2.3C60,24.9,59.9,24,59.9,23.1z
		 M64,23.1c0,0.9,0.1,1.7,0.3,2.4c0.2,0.7,0.5,1.3,0.9,1.8s0.9,0.9,1.5,1.1c0.6,0.3,1.3,0.4,2,0.4c0.7,0,1.4-0.1,2-0.4
		c0.6-0.3,1.1-0.6,1.5-1.1s0.7-1.1,0.9-1.8c0.2-0.7,0.3-1.5,0.3-2.4s-0.1-1.7-0.3-2.4c-0.2-0.7-0.5-1.3-0.9-1.8s-0.9-0.9-1.5-1.1
		c-0.6-0.3-1.3-0.4-2-0.4c-0.7,0-1.4,0.1-2,0.4c-0.6,0.3-1.1,0.6-1.5,1.1s-0.7,1.1-0.9,1.8S64,22.2,64,23.1z"/>
	<path class="st0" d="M83.4,31.9h-4V14.3h4v5.9c0.2-0.9,0.4-1.7,0.8-2.5s0.8-1.3,1.3-1.8s1.1-0.9,1.8-1.2c0.7-0.3,1.5-0.4,2.4-0.4
		h0.9v3.8h-1.3c-1.1,0-2.1,0.1-2.8,0.3c-0.8,0.2-1.4,0.6-1.8,1c-0.5,0.4-0.8,1-1,1.7c-0.2,0.7-0.3,1.5-0.3,2.4V31.9z"/>
	<path class="st0" d="M96.7,12.3h-4.1V8.2h4.1V12.3z M96.6,31.9h-4V14.3h4V31.9z"/>
	<path class="st0" d="M116.1,14.3L110,31.9h-5.8l-6.1-17.6h4.2l4.8,15.1l4.9-15.1H116.1z"/>
	<path class="st0" d="M116,23.1c0-1.4,0.2-2.7,0.6-3.8c0.4-1.1,1-2.1,1.8-2.9s1.7-1.4,2.8-1.9c1.1-0.4,2.3-0.7,3.6-0.7
		c1.3,0,2.5,0.2,3.6,0.7s2,1.1,2.8,1.9s1.4,1.8,1.8,2.9c0.4,1.1,0.6,2.4,0.6,3.8c0,0.9-0.1,1.8-0.3,2.6c-0.2,0.8-0.5,1.6-0.8,2.3
		c-0.4,0.7-0.8,1.3-1.3,1.9s-1.1,1-1.8,1.4c-0.7,0.4-1.4,0.7-2.1,0.9c-0.8,0.2-1.6,0.3-2.5,0.3c-0.9,0-1.7-0.1-2.5-0.3
		c-0.8-0.2-1.5-0.5-2.1-0.9c-0.7-0.4-1.2-0.8-1.8-1.4s-1-1.2-1.3-1.9c-0.4-0.7-0.6-1.4-0.8-2.3C116.1,24.9,116,24,116,23.1z
		 M120.1,23.1c0,0.9,0.1,1.7,0.3,2.4c0.2,0.7,0.5,1.3,0.9,1.8c0.4,0.5,0.9,0.9,1.5,1.1c0.6,0.3,1.3,0.4,2,0.4s1.4-0.1,2-0.4
		c0.6-0.3,1.1-0.6,1.5-1.1s0.7-1.1,0.9-1.8c0.2-0.7,0.3-1.5,0.3-2.4s-0.1-1.7-0.3-2.4c-0.2-0.7-0.5-1.3-0.9-1.8s-0.9-0.9-1.5-1.1
		c-0.6-0.3-1.3-0.4-2-0.4s-1.4,0.1-2,0.4c-0.6,0.3-1.1,0.6-1.5,1.1c-0.4,0.5-0.7,1.1-0.9,1.8S120.1,22.2,120.1,23.1z"/>
	<path class="st0" d="M145.3,23l6.6,9h-4.7l-5-6.9l-4.9,6.9h-4.5l6.4-8.9l-6.2-8.7h4.7l4.6,6.7l4.5-6.7h4.4L145.3,23z"/>
</g>
<g>
	<path class="st0" d="M14.1,34.9H8.2c-3.4,0-6.2-2.8-6.2-6.2V27h12.2V34.9z"/>
	<path class="st0" d="M35.2,17.8v7.7h-6.8c-1.5,0-2.7,1.2-2.7,2.7v6.6h-7.8C18.4,25.6,25.9,18.3,35.2,17.8z"/>
	<path class="st0" d="M23,6.7h5.9c3.4,0,6.2,2.8,6.2,6.2v1.7H23V6.7z"/>
	<path class="st0" d="M2,23.8V16h6.8c1.5,0,2.7-1.2,2.7-2.7V6.7h7.8C18.7,15.9,11.2,23.3,2,23.8z"/>
</g>
<g>
	<path class="st0" d="M154.4,14.8h-0.8V17H153v-2.2h-0.8v-0.6h2.3L154.4,14.8z M157.9,14.3V17h-0.6v-2.2l-0.6,2.2H156l-0.6-2.2V17
		h-0.6v-2.8h1l0.6,2l0.6-2H157.9z"/>
</g>
</svg>
