<?xml version="1.0" encoding="utf-8"?>
<!-- Generator: Adobe Illustrator 28.0.0, SVG Export Plug-In . SVG Version: 6.00 Build 0)  -->
<svg version="1.1" id="Layer_1" xmlns="http://www.w3.org/2000/svg" xmlns:xlink="http://www.w3.org/1999/xlink" x="0px" y="0px"
	 viewBox="0 0 40 40" style="enable-background:new 0 0 40 40;" xml:space="preserve">
<style type="text/css">
	.st0{fill:#FFFFFF;}
</style>
<g>
	<path class="st0" d="M15.4,34.6H9.5c-3.4,0-6.2-2.8-6.2-6.2v-1.7h12.2V34.6z"/>
	<path class="st0" d="M36.5,17.5v7.7h-6.8c-1.5,0-2.7,1.2-2.7,2.7v6.6H19C19.7,25.3,27.2,18,36.5,17.5z"/>
	<path class="st0" d="M24.3,6.4h5.9c3.4,0,6.2,2.8,6.2,6.2v1.7H24.3V6.4z"/>
	<path class="st0" d="M3.3,23.5v-7.7h6.8c1.5,0,2.7-1.2,2.7-2.7V6.4h7.8C20,15.6,12.5,22.9,3.3,23.5z"/>
</g>
</svg>
