<?xml version="1.0" encoding="utf-8"?>
<!-- Generator: Adobe Illustrator 28.0.0, SVG Export Plug-In . SVG Version: 6.00 Build 0)  -->
<svg version="1.1" id="Layer_1" xmlns="http://www.w3.org/2000/svg" xmlns:xlink="http://www.w3.org/1999/xlink" x="0px" y="0px"
	 viewBox="0 0 159 40" style="enable-background:new 0 0 159 40;" xml:space="preserve">
<style type="text/css">
	.st0{fill:#FFFFFF;}
	.st1{fill:#B6E439;}
	.st2{font-family:'Nohemi-Medium';}
	.st3{font-size:6.5962px;}
</style>
<g>
	<path class="st0" d="M48.2,31h-3.8V8.7h3.8v10.6c0.2-0.8,0.5-1.6,0.8-2.3c0.4-0.7,0.8-1.2,1.3-1.7s1.1-0.8,1.7-1
		c0.7-0.2,1.4-0.4,2.1-0.4c0.9,0,1.7,0.2,2.5,0.5s1.3,0.8,1.8,1.5s0.9,1.4,1.1,2.4s0.4,2,0.4,3.2V31h-3.8v-9.1
		c0-3.1-1.2-4.6-3.7-4.6c-0.7,0-1.3,0.1-1.8,0.3s-1,0.5-1.3,0.9c-0.4,0.4-0.6,0.9-0.8,1.5c-0.2,0.6-0.3,1.3-0.3,2.1V31z"/>
	<path class="st0" d="M61.7,22.7c0-1.3,0.2-2.5,0.6-3.6c0.4-1.1,1-2,1.7-2.8c0.7-0.8,1.6-1.4,2.6-1.8s2.1-0.6,3.4-0.6
		c1.2,0,2.4,0.2,3.4,0.6s1.9,1,2.6,1.8c0.7,0.8,1.3,1.7,1.7,2.8c0.4,1.1,0.6,2.3,0.6,3.6c0,0.9-0.1,1.7-0.3,2.5
		c-0.2,0.8-0.4,1.5-0.8,2.1c-0.3,0.7-0.8,1.2-1.2,1.7c-0.5,0.5-1,0.9-1.7,1.3c-0.6,0.4-1.3,0.6-2,0.8c-0.7,0.2-1.5,0.3-2.3,0.3
		s-1.6-0.1-2.3-0.3c-0.7-0.2-1.4-0.5-2-0.8C65,30,64.4,29.6,64,29.1c-0.5-0.5-0.9-1.1-1.2-1.7s-0.6-1.4-0.8-2.1S61.7,23.6,61.7,22.7
		z M65.5,22.7c0,0.8,0.1,1.6,0.3,2.3s0.5,1.2,0.9,1.7c0.4,0.5,0.9,0.8,1.4,1.1c0.6,0.2,1.2,0.4,1.9,0.4c0.7,0,1.3-0.1,1.9-0.4
		c0.6-0.2,1-0.6,1.4-1.1c0.4-0.5,0.7-1,0.9-1.7c0.2-0.7,0.3-1.4,0.3-2.3s-0.1-1.6-0.3-2.3c-0.2-0.7-0.5-1.2-0.9-1.7
		c-0.4-0.5-0.9-0.8-1.4-1.1c-0.6-0.2-1.2-0.4-1.9-0.4c-0.7,0-1.3,0.1-1.9,0.4c-0.6,0.2-1,0.6-1.4,1.1c-0.4,0.5-0.7,1-0.9,1.7
		S65.5,21.9,65.5,22.7z"/>
	<path class="st0" d="M83.8,31H80V14.4h3.8v5.5c0.2-0.9,0.4-1.6,0.8-2.3s0.7-1.3,1.2-1.7c0.5-0.5,1.1-0.8,1.7-1.1
		c0.7-0.3,1.4-0.4,2.3-0.4h0.9V18h-1.2c-1.1,0-2,0.1-2.7,0.3c-0.7,0.2-1.3,0.5-1.7,0.9c-0.4,0.4-0.7,1-0.9,1.6
		c-0.2,0.6-0.3,1.4-0.3,2.3V31z"/>
	<path class="st0" d="M96.3,12.6h-3.9V8.7h3.9V12.6z M96.2,31h-3.8V14.4h3.8V31z"/>
	<path class="st0" d="M114.6,14.4L108.8,31h-5.5l-5.7-16.6h4l4.6,14.2l4.6-14.2H114.6z"/>
	<path class="st0" d="M115.6,22.7c0-1.3,0.2-2.5,0.6-3.6c0.4-1.1,1-2,1.7-2.8s1.6-1.4,2.6-1.8s2.1-0.6,3.4-0.6s2.4,0.2,3.4,0.6
		s1.9,1,2.6,1.8s1.3,1.7,1.7,2.8c0.4,1.1,0.6,2.3,0.6,3.6c0,0.9-0.1,1.7-0.3,2.5s-0.4,1.5-0.8,2.1c-0.3,0.7-0.8,1.2-1.2,1.7
		c-0.5,0.5-1,0.9-1.7,1.3c-0.6,0.4-1.3,0.6-2,0.8c-0.7,0.2-1.5,0.3-2.3,0.3s-1.6-0.1-2.3-0.3c-0.7-0.2-1.4-0.5-2-0.8
		c-0.6-0.4-1.2-0.8-1.7-1.3c-0.5-0.5-0.9-1.1-1.2-1.7s-0.6-1.4-0.8-2.1C115.7,24.4,115.6,23.6,115.6,22.7z M119.4,22.7
		c0,0.8,0.1,1.6,0.3,2.3c0.2,0.7,0.5,1.2,0.9,1.7c0.4,0.5,0.9,0.8,1.4,1.1c0.6,0.2,1.2,0.4,1.9,0.4s1.3-0.1,1.9-0.4s1-0.6,1.4-1.1
		c0.4-0.5,0.7-1,0.9-1.7c0.2-0.7,0.3-1.4,0.3-2.3s-0.1-1.6-0.3-2.3c-0.2-0.7-0.5-1.2-0.9-1.7c-0.4-0.5-0.9-0.8-1.4-1.1
		s-1.2-0.4-1.9-0.4s-1.3,0.1-1.9,0.4c-0.6,0.2-1,0.6-1.4,1.1c-0.4,0.5-0.7,1-0.9,1.7C119.5,21.1,119.4,21.9,119.4,22.7z"/>
	<path class="st0" d="M145,22.6l6.2,8.4h-4.4l-4.7-6.5l-4.6,6.5h-4.2l6-8.4l-5.8-8.2h4.4l4.3,6.3l4.2-6.3h4.2L145,22.6z"/>
</g>
<g>
	<path class="st1" d="M18.6,33.8h-4c-4.1,0-7.4-3.3-7.4-7.4v0h11.5V33.8z"/>
	<path class="st1" d="M38.4,17.7V25h-6.4c-1.4,0-2.6,1.2-2.6,2.6v6.2h-7.4C22.6,25.1,29.6,18.2,38.4,17.7z"/>
	<path class="st1" d="M26.9,7.2h4c4.1,0,7.4,3.3,7.4,7.4v0H26.9V7.2z"/>
	<path class="st1" d="M7.1,23.3V16h6.4c1.4,0,2.6-1.2,2.6-2.6V7.3h7.4C22.8,16,15.8,22.9,7.1,23.3z"/>
</g>
<text transform="matrix(1 0 0 1 148.3027 19.1055)" class="st0 st2 st3">™</text>
</svg>
